<svg xmlns="http://www.w3.org/2000/svg" version="1.1" xmlns:xlink="http://www.w3.org/1999/xlink" width="512" height="512" x="0" y="0" viewBox="0 0 128 128" style="enable-background:new 0 0 512 512" xml:space="preserve" class=""><g><circle cx="64" cy="64" r="64" fill="#7f5bb1" opacity="1" data-original="#f7b718" class=""></circle><circle cx="46.2" cy="14.1" r="11.8" fill="#432c65" opacity="1" data-original="#f85863" class=""></circle><circle cx="55.3" cy="27.4" r="11.8" fill="#482a74" opacity="1" data-original="#01277b" class=""></circle><path fill="#432c65" d="M39.8 66.3c0 13.5 10.9 24.4 24.4 24.4s24.4-10.9 24.4-24.4V40.9c0-13.5-10.9-24.4-24.4-24.4S39.8 27.4 39.8 40.9z" opacity="1" data-original="#f85863" class=""></path><path fill="#482a74" d="M64.1 77.8c-19.6 0-35.5 15.9-35.5 35.5v4C38.7 124.1 50.9 128 64 128s25.4-4 35.5-10.8v-4c0-19.5-15.9-35.4-35.4-35.4z" opacity="1" data-original="#01277b" class=""></path><path fill="#ffffff" d="M55.4 62.9v17.9c0 4.8 3.9 8.7 8.7 8.7s8.7-3.9 8.7-8.7V62.9z" opacity="1" data-original="#ffffff" class=""></path><path fill="#482a74" d="M55.4 65.7v6.2c2.6 2.6 5.5 4.4 8.7 5.3s6.1.8 8.7-.3V65.7z" opacity="1" data-original="#01277b" class=""></path><path fill="#ffffff" d="M51.1 36.2c-2.8 3.6-4.5 8.8-4.5 15.3 0 14 7.8 23.1 17.5 23.1s17.5-9.2 17.5-23.1c0-6.5-1.7-11.7-4.5-15.3z" opacity="1" data-original="#ffffff" class=""></path><path fill="#432c65" d="m48.1 33.9-5.4 8.2c2.7 2.2 6.1 3.6 9.8 3.6 8.2 0 15-6.5 15.3-14.7z" opacity="1" data-original="#f85863" class=""></path><path fill="#432c65" d="M63.2 32.1c.9 5.5 5.6 9.8 11.4 9.8s10.5-4.2 11.4-9.8z" opacity="1" data-original="#f85863" class=""></path><circle cx="55.9" cy="51.8" r="2" fill="#482a74" opacity="1" data-original="#01277b" class=""></circle><circle cx="72.2" cy="51.8" r="2" fill="#482a74" opacity="1" data-original="#01277b" class=""></circle><path fill="#482a74" d="M56.9 60.4c.2 3.8 3.3 6.9 7.2 6.9s7-3 7.2-6.9z" opacity="1" data-original="#01277b" class=""></path></g></svg>