<svg xmlns="http://www.w3.org/2000/svg" version="1.1" xmlns:xlink="http://www.w3.org/1999/xlink" width="512" height="512" x="0" y="0" viewBox="0 0 128 128" style="enable-background:new 0 0 512 512" xml:space="preserve" class=""><g><circle cx="64" cy="64" r="64" fill="#7f5bb1" opacity="1" data-original="#1597ff" class=""></circle><circle cx="45.2" cy="45.2" r="11.4" fill="#432c65" opacity="1" data-original="#01277b" class=""></circle><circle cx="77.7" cy="45.2" r="17" fill="#432c65" opacity="1" data-original="#01277b" class=""></circle><path fill="#482a74" d="M64 128c16.9 0 32.3-6.6 43.8-17.3C97 96.1 78.9 86.3 64 86.3S31 96 20.2 110.6C31.7 121.4 47.1 128 64 128z" opacity="1" data-original="#f7b718" class=""></path><path fill="#ffffff" d="M52.3 70.8v18.7c0 6.4 5.2 11.7 11.7 11.7 6.4 0 11.7-5.2 11.7-11.7V70.8z" opacity="1" data-original="#ffffff" class=""></path><path fill="#432c65" d="M52.3 72.4v8.7c3.4 2.9 7.4 5 11.7 6s8.3.7 11.7-.7v-14z" opacity="1" data-original="#01277b" class=""></path><path fill="#ffffff" d="M64 84.4c-12.2 0-22.1-9.9-22.1-22.1V45.9c0-12.2 9.9-22.1 22.1-22.1s22.1 9.9 22.1 22.1v16.4c0 12.2-9.9 22.1-22.1 22.1z" opacity="1" data-original="#ffffff" class=""></path><g fill="#01277b"><circle cx="82.9" cy="34.6" r="10.1" fill="#432c65" opacity="1" data-original="#01277b" class=""></circle><circle cx="70.4" cy="27.8" r="12.4" fill="#432c65" opacity="1" data-original="#01277b" class=""></circle><circle cx="51.9" cy="29.5" r="17.8" fill="#432c65" opacity="1" data-original="#01277b" class=""></circle></g><circle cx="54.6" cy="54.9" r="2.7" fill="#432c65" opacity="1" data-original="#01277b" class=""></circle><circle cx="73.4" cy="54.9" r="2.7" fill="#432c65" opacity="1" data-original="#01277b" class=""></circle><path fill="#432c65" d="M55.3 64.8c.2 4.6 4.1 8.3 8.7 8.3s8.5-3.7 8.7-8.3z" opacity="1" data-original="#01277b" class=""></path><ellipse cx="40.7" cy="56.6" fill="#ffffff" rx="4.2" ry="6.1" opacity="1" data-original="#ffffff" class=""></ellipse><ellipse cx="87.3" cy="56.6" fill="#ffffff" rx="4.2" ry="6.1" opacity="1" data-original="#ffffff" class=""></ellipse></g></svg>